<svg width="411" height="95" viewBox="0 0 411 95" fill="none" xmlns="http://www.w3.org/2000/svg">
<path d="M61.8125 73H6.21875C5.34375 73 4.53125 72.8438 3.78125 72.5312C3.03125 72.2188 2.375 71.7969 1.8125 71.2656C1.28125 70.7031 0.859375 70.0469 0.546875 69.2969C0.234375 68.5469 0.078125 67.7344 0.078125 66.8594V5.78125H12.2656V60.8125H61.8125V73ZM124.531 55.8906C124.531 57.9844 124.266 59.875 123.734 61.5625C123.203 63.2188 122.5 64.6875 121.625 65.9688C120.75 67.2188 119.734 68.2969 118.578 69.2031C117.422 70.0781 116.203 70.7969 114.922 71.3594C113.672 71.9219 112.391 72.3438 111.078 72.625C109.797 72.875 108.578 73 107.422 73H85.4375C83.75 73 81.9062 72.7031 79.9062 72.1094C77.9062 71.5156 76.0469 70.5469 74.3281 69.2031C72.6406 67.8281 71.2188 66.0625 70.0625 63.9062C68.9375 61.7188 68.375 59.0469 68.375 55.8906V39.3906C68.375 36.2656 68.9375 33.625 70.0625 31.4688C71.2188 29.2812 72.6406 27.5156 74.3281 26.1719C76.0469 24.7969 77.9062 23.8125 79.9062 23.2188C81.9062 22.625 83.75 22.3281 85.4375 22.3281H107.422C110.547 22.3281 113.203 22.8906 115.391 24.0156C117.578 25.1406 119.344 26.5625 120.688 28.2812C122.031 29.9688 123 31.8125 123.594 33.8125C124.219 35.8125 124.531 37.6719 124.531 39.3906V55.8906ZM112.344 39.4844C112.344 37.7969 111.922 36.5469 111.078 35.7344C110.234 34.9219 109.016 34.5156 107.422 34.5156H85.5312C83.9062 34.5156 82.6719 34.9375 81.8281 35.7812C80.9844 36.5938 80.5625 37.7969 80.5625 39.3906V55.8906C80.5625 57.4844 80.9844 58.7031 81.8281 59.5469C82.6719 60.3906 83.9062 60.8125 85.5312 60.8125H107.422C109.078 60.8125 110.312 60.3906 111.125 59.5469C111.938 58.7031 112.344 57.4844 112.344 55.8906V39.4844ZM187.25 56.2188C187.25 57.9062 186.953 59.7344 186.359 61.7031C185.766 63.6406 184.797 65.4531 183.453 67.1406C182.141 68.7969 180.406 70.1875 178.25 71.3125C176.125 72.4375 173.531 73 170.469 73H148.484C146.797 73 144.969 72.7031 143 72.1094C141.062 71.5156 139.25 70.5625 137.562 69.25C135.906 67.9062 134.516 66.1719 133.391 64.0469C132.266 61.8906 131.703 59.2812 131.703 56.2188C131.703 54.5312 132 52.7031 132.594 50.7344C133.188 48.7656 134.141 46.9531 135.453 45.2969C136.797 43.6094 138.531 42.2031 140.656 41.0781C142.812 39.9531 145.422 39.3906 148.484 39.3906H170.469V51.0156H148.484C146.828 51.0156 145.547 51.5312 144.641 52.5625C143.734 53.5625 143.281 54.8125 143.281 56.3125C143.281 57.9062 143.797 59.1562 144.828 60.0625C145.891 60.9375 147.141 61.375 148.578 61.375H170.469C172.125 61.375 173.406 60.875 174.312 59.875C175.219 58.875 175.672 57.625 175.672 56.125V39.1094C175.672 37.5156 175.172 36.25 174.172 35.3125C173.203 34.375 171.969 33.9062 170.469 33.9062H143.703V22.3281H170.469C172.156 22.3281 173.969 22.625 175.906 23.2188C177.875 23.8125 179.688 24.7812 181.344 26.125C183.031 27.4375 184.438 29.1719 185.562 31.3281C186.688 33.4531 187.25 36.0469 187.25 39.1094V56.2188ZM253.25 55.8906C253.25 57.9844 252.984 59.875 252.453 61.5625C251.922 63.2188 251.219 64.6875 250.344 65.9688C249.469 67.2188 248.453 68.2969 247.297 69.2031C246.141 70.0781 244.922 70.7969 243.641 71.3594C242.391 71.9219 241.109 72.3438 239.797 72.625C238.516 72.875 237.297 73 236.141 73H214.156C212.062 73 210.188 72.7344 208.531 72.2031C206.875 71.6719 205.406 70.9688 204.125 70.0938C202.875 69.1875 201.797 68.1562 200.891 67C200.016 65.8438 199.297 64.6406 198.734 63.3906C198.172 62.1094 197.75 60.8281 197.469 59.5469C197.219 58.2344 197.094 57.0156 197.094 55.8906V39.3906C197.094 36.2656 197.656 33.625 198.781 31.4688C199.938 29.2812 201.359 27.5156 203.047 26.1719C204.766 24.7969 206.625 23.8125 208.625 23.2188C210.625 22.625 212.469 22.3281 214.156 22.3281H236.141V34.5156H214.25C212.625 34.5156 211.391 34.9375 210.547 35.7812C209.703 36.5938 209.281 37.7969 209.281 39.3906V55.7969C209.281 57.4531 209.688 58.7031 210.5 59.5469C211.344 60.3906 212.562 60.8125 214.156 60.8125H236.141C237.797 60.8125 239.031 60.3906 239.844 59.5469C240.656 58.7031 241.062 57.4844 241.062 55.8906V0.90625H253.25V55.8906ZM277.25 11.9219H265.062V0.90625H277.25V11.9219ZM277.25 73H265.062V22.3281H277.25V73ZM345.125 73H332.938V44.875C332.938 43.2812 332.656 41.8594 332.094 40.6094C331.562 39.3281 330.828 38.2344 329.891 37.3281C328.953 36.4219 327.844 35.7344 326.562 35.2656C325.312 34.7656 323.953 34.5156 322.484 34.5156H301.156V73H288.969V28.375C288.969 27.5312 289.125 26.75 289.438 26.0312C289.75 25.2812 290.188 24.6406 290.75 24.1094C291.312 23.5469 291.969 23.1094 292.719 22.7969C293.469 22.4844 294.266 22.3281 295.109 22.3281H322.578C324.109 22.3281 325.719 22.5 327.406 22.8438C329.125 23.1875 330.812 23.75 332.469 24.5312C334.156 25.2812 335.75 26.25 337.25 27.4375C338.781 28.5938 340.125 30.0156 341.281 31.7031C342.469 33.3594 343.406 35.2812 344.094 37.4688C344.781 39.6562 345.125 42.125 345.125 44.875V73ZM410.938 77.875C410.938 79.9688 410.672 81.8438 410.141 83.5C409.609 85.1875 408.906 86.6562 408.031 87.9062C407.156 89.1875 406.141 90.2656 404.984 91.1406C403.828 92.0469 402.609 92.7812 401.328 93.3438C400.078 93.9062 398.797 94.3125 397.484 94.5625C396.203 94.8438 394.984 94.9844 393.828 94.9844H371.844V82.7969H393.828C395.484 82.7969 396.719 82.375 397.531 81.5312C398.344 80.6875 398.75 79.4688 398.75 77.875V39.3906C398.75 37.7969 398.344 36.5938 397.531 35.7812C396.719 34.9375 395.484 34.5156 393.828 34.5156H371.844C370.344 34.5156 369.156 34.9844 368.281 35.9219C367.406 36.8281 366.969 37.9844 366.969 39.3906V55.8906C366.969 57.4844 367.391 58.7031 368.234 59.5469C369.078 60.3906 370.312 60.8125 371.938 60.8125H393.828V73H371.844C370.688 73 369.469 72.875 368.188 72.625C366.906 72.3438 365.625 71.9219 364.344 71.3594C363.094 70.7969 361.891 70.0781 360.734 69.2031C359.578 68.2969 358.562 67.2188 357.688 65.9688C356.812 64.6875 356.109 63.2188 355.578 61.5625C355.047 59.875 354.781 57.9844 354.781 55.8906V39.3906C354.781 38.2344 354.906 37.0156 355.156 35.7344C355.438 34.4531 355.859 33.1875 356.422 31.9375C356.984 30.6562 357.703 29.4375 358.578 28.2812C359.484 27.125 360.562 26.1094 361.812 25.2344C363.094 24.3594 364.562 23.6562 366.219 23.125C367.875 22.5938 369.75 22.3281 371.844 22.3281H393.828C394.984 22.3281 396.203 22.4688 397.484 22.75C398.797 23 400.078 23.4062 401.328 23.9688C402.609 24.5312 403.828 25.2656 404.984 26.1719C406.141 27.0469 407.156 28.125 408.031 29.4062C408.906 30.6562 409.609 32.1094 410.141 33.7656C410.672 35.4219 410.938 37.2969 410.938 39.3906V77.875Z" fill="#F2404F"/>
</svg>


