<?xml version="1.0" standalone="no"?>
<!DOCTYPE svg PUBLIC "-//W3C//DTD SVG 20010904//EN"
 "http://www.w3.org/TR/2001/REC-SVG-20010904/DTD/svg10.dtd">
<svg version="1.0" xmlns="http://www.w3.org/2000/svg"
 width="619.000000pt" height="506.000000pt" viewBox="0 0 619.000000 506.000000"
 preserveAspectRatio="xMidYMid meet">

<g transform="translate(0.000000,506.000000) scale(0.100000,-0.100000)"
fill="hsl(355, 87%, 60%)" stroke="none">
<path d="M940 4976 c-140 -30 -265 -84 -387 -168 -71 -49 -183 -157 -183 -177
0 -6 19 -24 43 -42 39 -29 317 -208 362 -233 11 -6 47 -29 79 -50 33 -21 67
-41 75 -44 9 -3 28 -15 44 -26 25 -18 32 -19 85 -8 73 15 101 15 172 0 62 -12
50 -17 199 73 140 84 481 302 490 312 8 11 6 22 -12 48 -12 19 -29 34 -37 34
-8 1 -14 6 -13 12 3 16 -75 75 -89 67 -6 -4 -8 -3 -4 4 8 14 -50 55 -65 46 -8
-4 -9 -3 -5 5 10 15 -171 102 -274 131 -96 28 -378 37 -480 16z"/>
<path d="M3175 4976 c-193 -45 -360 -132 -492 -259 -90 -86 -89 -91 52 -182
63 -41 116 -75 119 -75 3 0 33 -19 68 -43 87 -59 154 -97 162 -92 3 3 4 2 1
-1 -4 -6 78 -64 91 -64 3 0 18 -10 34 -21 24 -18 36 -21 72 -14 57 11 152 11
212 0 31 -5 47 -5 43 1 -3 5 2 10 11 10 19 0 592 355 612 379 11 13 8 21 -18
53 -17 20 -36 36 -42 34 -6 -1 -9 2 -6 7 9 13 -140 124 -155 115 -8 -5 -9 -3
-4 6 6 10 4 12 -9 7 -10 -4 -15 -3 -11 3 9 14 -159 93 -255 120 -97 28 -390
38 -485 16z"/>
<path d="M268 4519 c-29 -17 -41 -48 -26 -67 12 -15 11 -16 -5 -3 -16 12 -21
6 -58 -73 -22 -48 -52 -131 -66 -184 -23 -84 -26 -118 -27 -252 0 -131 3 -169
23 -245 35 -136 128 -324 152 -309 5 3 8 0 7 -8 -2 -7 7 -14 19 -16 29 -4 105
38 99 55 -3 7 0 15 6 19 7 5 8 2 3 -6 -14 -23 37 0 130 59 50 32 146 93 215
136 69 43 130 83 135 88 7 7 5 7 -4 2 -10 -5 -12 -4 -7 4 4 6 12 9 17 6 5 -4
16 0 23 8 11 11 12 17 3 27 -9 10 -9 11 0 6 7 -4 0 19 -14 51 -33 72 -41 160
-19 222 8 25 12 49 9 54 -3 6 -1 7 5 3 18 -11 27 43 11 58 -8 7 -102 68 -209
136 -107 68 -214 136 -238 152 -24 15 -48 25 -54 22 -7 -5 -8 -2 -3 6 6 10 4
12 -11 6 -10 -4 -15 -4 -11 0 9 9 -52 54 -72 54 -9 0 -24 -5 -33 -11z"/>
<path d="M1690 4345 c-162 -102 -299 -191 -304 -198 -5 -8 2 -33 19 -67 49
-96 43 -237 -11 -301 -8 -8 -14 -21 -14 -27 0 -12 193 -142 210 -142 6 0 10
-5 10 -11 0 -5 5 -7 10 -4 6 3 10 1 10 -4 0 -6 6 -11 14 -11 8 0 16 -4 18 -9
2 -5 74 -54 162 -110 184 -117 204 -122 240 -56 11 22 24 42 27 45 15 13 39
72 33 82 -5 7 -3 8 6 3 10 -6 12 -4 7 8 -3 10 -2 17 3 17 12 0 53 138 46 156
-3 8 -2 13 3 10 11 -7 24 97 16 125 -5 15 -4 19 4 15 8 -5 11 21 11 89 0 53
-3 94 -7 92 -5 -3 -9 20 -10 51 -2 63 -27 155 -66 249 -36 83 -82 159 -96 156
-6 -2 -10 3 -8 9 7 38 -61 3 -333 -167z"/>
<path d="M2508 4518 c-26 -22 -74 -100 -103 -168 -84 -197 -103 -431 -53 -640
25 -107 76 -232 90 -223 7 4 8 1 4 -6 -12 -18 60 -121 83 -121 30 0 52 11 44
23 -3 5 -1 7 5 3 5 -3 48 17 94 45 45 29 116 72 156 96 42 26 69 49 66 55 -4
7 -2 8 4 4 9 -6 217 117 249 148 9 8 6 25 -14 71 -14 33 -28 85 -30 116 -6 61
11 155 33 179 29 34 9 53 -170 167 -98 62 -182 110 -188 107 -7 -5 -8 -2 -3 6
6 9 4 12 -7 8 -8 -4 -21 -2 -29 4 -11 7 -9 8 6 4 17 -5 16 -3 -5 13 -13 11
-28 18 -31 15 -4 -2 -9 -1 -11 4 -7 18 -69 53 -80 46 -7 -4 -10 -4 -6 1 9 10
-50 55 -72 55 -9 0 -23 -6 -32 -12z"/>
<path d="M4193 4509 c-18 -12 -33 -24 -33 -28 0 -4 -6 -8 -12 -8 -15 0 -320
-190 -329 -205 -3 -5 -8 -8 -10 -7 -7 6 -180 -103 -185 -116 -3 -7 7 -37 23
-66 24 -47 28 -65 28 -139 0 -75 -3 -91 -29 -137 -15 -28 -26 -55 -23 -60 3
-5 45 -34 92 -64 47 -30 142 -91 212 -136 70 -45 131 -79 136 -76 6 3 7 2 4
-3 -8 -15 144 -104 177 -104 21 0 27 4 22 16 -3 8 -2 13 3 9 17 -10 108 146
96 165 -4 6 -2 10 4 10 13 0 34 67 25 81 -4 7 -3 9 4 5 11 -6 22 37 42 159 21
130 6 316 -37 450 -25 79 -87 207 -117 243 -32 37 -49 39 -93 11z"/>
<path d="M983 3655 c-21 -12 -128 -78 -238 -146 -110 -69 -234 -146 -276 -172
-99 -61 -108 -71 -88 -105 9 -15 21 -26 28 -24 7 1 10 -2 7 -7 -14 -21 223
-199 247 -184 5 3 7 2 4 -4 -8 -12 124 -68 222 -95 108 -30 334 -36 456 -13
136 25 364 122 349 147 -4 7 -2 8 5 4 23 -15 231 159 231 193 0 6 -15 21 -33
35 -35 27 -53 33 -42 16 3 -6 -1 -7 -10 -3 -12 4 -13 8 -5 13 7 4 -7 18 -37
35 -26 16 -48 27 -49 24 0 -2 -9 4 -19 14 -30 30 -63 49 -75 42 -6 -4 -9 -2
-8 5 3 10 -182 135 -311 211 -53 32 -56 32 -111 21 -72 -15 -94 -15 -158 1
-48 13 -54 12 -89 -8z"/>
<path d="M3181 3630 c-43 -26 -116 -72 -162 -102 -46 -30 -133 -85 -194 -122
-167 -103 -215 -137 -215 -153 0 -35 219 -219 247 -208 8 2 11 0 8 -5 -9 -15
166 -96 260 -121 112 -30 337 -37 458 -15 100 19 227 63 227 79 0 6 3 8 6 4
26 -26 353 215 340 250 -4 9 -1 11 5 7 7 -4 10 -1 7 7 -5 16 -170 129 -180
123 -3 -2 -8 -1 -10 4 -7 17 -69 53 -79 46 -7 -4 -9 -3 -6 3 5 8 -61 63 -76
63 -1 0 -61 38 -132 85 -72 47 -140 88 -153 92 -12 3 -42 0 -67 -6 -59 -15
-102 -14 -158 3 l-47 14 -79 -48z"/>
<path d="M470 2745 c-23 -24 -28 -25 -155 -25 -119 0 -134 2 -150 20 -25 28
-60 25 -84 -6 -21 -27 -21 -27 -21 -1304 0 -907 3 -1286 11 -1309 14 -38 41
-56 68 -42 15 9 19 23 20 88 1 42 7 83 13 90 8 10 44 13 152 11 l141 -3 5 -85
c5 -92 12 -110 39 -110 22 0 44 23 33 35 -4 5 -2 5 5 1 6 -3 14 -2 18 4 5 7 9
2356 5 2598 0 27 -33 62 -58 62 -10 0 -29 -11 -42 -25z m34 1 c-3 -8 -12 -17
-20 -20 -11 -4 -12 -2 -1 14 14 23 29 27 21 6z m16 -23 c-11 -17 -11 -17 -6 0
3 10 6 24 7 30 0 9 2 9 5 0 3 -7 0 -20 -6 -30z m-60 -163 c6 -11 10 -50 8 -87
-4 -81 -2 -81 -165 -82 -138 -1 -143 2 -143 98 0 39 5 72 12 79 8 8 55 12 145
12 122 0 133 -1 143 -20z m-6 -326 c20 -19 22 -144 4 -162 -17 -17 -269 -17
-286 0 -7 7 -12 41 -12 85 0 58 3 74 18 82 9 6 72 11 139 11 97 0 125 -3 137
-16z m-3 -324 c16 -9 19 -22 19 -85 0 -63 -3 -76 -19 -85 -11 -5 -72 -10 -136
-10 -64 0 -125 5 -136 10 -16 9 -19 22 -19 86 0 68 2 75 23 84 31 12 244 12
268 0z m9 -340 c5 -8 10 -45 10 -82 0 -56 -3 -69 -19 -78 -28 -15 -264 -13
-279 2 -7 7 -12 41 -12 84 0 69 1 74 27 86 39 19 260 9 273 -12z m-9 -320 c16
-9 19 -22 19 -80 0 -98 -4 -100 -152 -100 -152 0 -158 4 -158 101 0 54 4 70
18 78 23 14 248 14 273 1z m7 -332 c7 -7 12 -42 12 -85 0 -70 -1 -74 -26 -83
-37 -15 -224 -12 -254 3 -23 11 -25 19 -28 85 -3 67 -1 73 20 82 35 14 262 12
276 -2z m6 -334 c3 -9 6 -44 6 -79 0 -45 -4 -66 -16 -76 -23 -19 -255 -19
-278 0 -20 16 -23 140 -4 159 8 8 56 12 149 12 116 0 138 -2 143 -16z"/>
<path d="M754 2751 c-69 -42 -64 70 -64 -1332 l0 -1267 26 -31 c14 -18 36 -37
48 -43 16 -10 439 -12 1806 -10 1566 3 1788 5 1808 18 12 8 20 20 16 26 -4 7
-3 8 5 4 7 -5 17 5 26 28 13 31 15 204 15 1275 0 801 -4 1249 -10 1266 -6 16
-14 23 -22 19 -6 -4 -8 -3 -5 2 7 13 -2 26 -33 47 -23 16 -149 17 -1805 17
-1735 0 -1781 -1 -1811 -19z m1319 -652 c40 -20 392 -229 524 -311 66 -40 79
-45 67 -26 -4 7 -3 8 5 4 6 -4 9 -11 7 -15 -3 -4 25 -25 62 -47 267 -157 381
-227 400 -245 11 -10 22 -16 24 -14 2 2 3 -12 2 -32 -1 -23 -11 -44 -26 -58
-12 -13 -143 -92 -290 -177 -147 -85 -264 -159 -260 -163 4 -5 2 -5 -4 -2 -7
4 -106 -48 -220 -114 -282 -163 -313 -179 -354 -179 -43 0 -108 41 -115 73 -2
12 -6 293 -8 623 -4 521 -2 606 11 635 8 19 14 38 13 42 -1 5 3 6 8 3 5 -3 22
1 37 9 39 20 67 19 117 -6z"/>
<path d="M5930 2702 c-47 -27 -152 -88 -235 -137 -141 -83 -229 -134 -567
-330 -75 -44 -134 -84 -131 -89 4 -5 1 -6 -4 -3 -14 9 -246 -127 -236 -137 4
-4 -1 -4 -11 0 -15 6 -17 4 -11 -6 5 -9 4 -11 -3 -6 -12 7 -143 -72 -157 -94
-4 -7 -7 -217 -6 -468 1 -426 3 -459 20 -482 22 -31 391 -261 408 -255 7 2 12
0 10 -5 -1 -6 8 -16 20 -23 12 -6 94 -56 182 -110 92 -56 166 -95 172 -91 7 4
9 3 6 -3 -4 -6 73 -58 171 -118 97 -59 235 -144 306 -188 175 -108 208 -115
258 -53 16 20 18 103 18 1304 l0 1284 -29 29 c-43 42 -79 39 -181 -19z"/>
</g>
</svg>
