<svg width="512" height="74" viewBox="0 0 512 74" fill="none" xmlns="http://www.w3.org/2000/svg">
<path d="M78.3125 73H66.0312V32.9688L44.4219 70.9844C43.8906 71.9531 43.1406 72.6875 42.1719 73.1875C41.2344 73.6875 40.2188 73.9375 39.125 73.9375C38.0625 73.9375 37.0625 73.6875 36.125 73.1875C35.2188 72.6875 34.5 71.9531 33.9688 70.9844L12.2656 32.9688V73H0.078125V10.9844C0.078125 9.57812 0.484375 8.32812 1.29688 7.23438C2.14062 6.14063 3.23438 5.40625 4.57812 5.03125C5.23438 4.875 5.89062 4.82813 6.54688 4.89062C7.20312 4.92188 7.82812 5.0625 8.42188 5.3125C9.04688 5.53125 9.60938 5.85938 10.1094 6.29688C10.6094 6.70313 11.0312 7.20312 11.375 7.79688L39.125 56.0312L66.875 7.79688C67.5938 6.60938 68.5781 5.76563 69.8281 5.26562C71.1094 4.76562 72.4375 4.6875 73.8125 5.03125C75.125 5.40625 76.2031 6.14063 77.0469 7.23438C77.8906 8.32812 78.3125 9.57812 78.3125 10.9844V73ZM145.906 55.8906C145.906 57.9844 145.641 59.875 145.109 61.5625C144.578 63.2188 143.875 64.6875 143 65.9688C142.125 67.2188 141.109 68.2969 139.953 69.2031C138.797 70.0781 137.578 70.7969 136.297 71.3594C135.047 71.9219 133.766 72.3438 132.453 72.625C131.172 72.875 129.953 73 128.797 73H106.812C105.125 73 103.281 72.7031 101.281 72.1094C99.2812 71.5156 97.4219 70.5469 95.7031 69.2031C94.0156 67.8281 92.5938 66.0625 91.4375 63.9062C90.3125 61.7188 89.75 59.0469 89.75 55.8906V39.3906C89.75 36.2656 90.3125 33.625 91.4375 31.4688C92.5938 29.2812 94.0156 27.5156 95.7031 26.1719C97.4219 24.7969 99.2812 23.8125 101.281 23.2188C103.281 22.625 105.125 22.3281 106.812 22.3281H128.797C131.922 22.3281 134.578 22.8906 136.766 24.0156C138.953 25.1406 140.719 26.5625 142.062 28.2812C143.406 29.9688 144.375 31.8125 144.969 33.8125C145.594 35.8125 145.906 37.6719 145.906 39.3906V55.8906ZM133.719 39.4844C133.719 37.7969 133.297 36.5469 132.453 35.7344C131.609 34.9219 130.391 34.5156 128.797 34.5156H106.906C105.281 34.5156 104.047 34.9375 103.203 35.7812C102.359 36.5938 101.938 37.7969 101.938 39.3906V55.8906C101.938 57.4844 102.359 58.7031 103.203 59.5469C104.047 60.3906 105.281 60.8125 106.906 60.8125H128.797C130.453 60.8125 131.688 60.3906 132.5 59.5469C133.312 58.7031 133.719 57.4844 133.719 55.8906V39.4844ZM216.781 22.3281C215.406 26.6094 213.797 30.8281 211.953 34.9844C210.109 39.1406 207.984 43.1094 205.578 46.8906C203.203 50.6406 200.531 54.125 197.562 57.3438C194.625 60.5312 191.359 63.2969 187.766 65.6406C184.203 67.9531 180.312 69.7812 176.094 71.125C171.906 72.4375 167.359 73.0938 162.453 73.0938C161.609 73.0938 160.812 72.9375 160.062 72.625C159.312 72.3125 158.656 71.8906 158.094 71.3594C157.531 70.7969 157.094 70.1562 156.781 69.4375C156.469 68.6875 156.312 67.8906 156.312 67.0469V22.3281H168.5V60.4375C171.469 60.4375 174.312 59.7969 177.031 58.5156C179.781 57.2344 182.375 55.5469 184.812 53.4531C187.25 51.3281 189.5 48.9219 191.562 46.2344C193.656 43.5469 195.516 40.7969 197.141 37.9844C198.766 35.1406 200.141 32.3594 201.266 29.6406C202.422 26.9219 203.281 24.4844 203.844 22.3281H216.781ZM233.562 11.9219H221.375V0.90625H233.562V11.9219ZM233.562 73H221.375V22.3281H233.562V73ZM299.797 39.1094C299.797 40.7969 299.5 42.625 298.906 44.5938C298.312 46.5312 297.344 48.3438 296 50.0312C294.688 51.6875 292.953 53.0781 290.797 54.2031C288.672 55.3281 286.078 55.8906 283.016 55.8906H261.031V44.3125H283.016C284.672 44.3125 285.953 43.8125 286.859 42.8125C287.766 41.7812 288.219 40.5156 288.219 39.0156C288.219 37.4219 287.703 36.1719 286.672 35.2656C285.672 34.3594 284.453 33.9062 283.016 33.9062H261.031C259.375 33.9062 258.094 34.4219 257.188 35.4531C256.281 36.4531 255.828 37.7031 255.828 39.2031V56.2188C255.828 57.8438 256.328 59.1094 257.328 60.0156C258.359 60.9219 259.625 61.375 261.125 61.375H283.016V73H261.031C259.344 73 257.516 72.7031 255.547 72.1094C253.609 71.5156 251.797 70.5625 250.109 69.25C248.453 67.9062 247.062 66.1719 245.938 64.0469C244.812 61.8906 244.25 59.2812 244.25 56.2188V39.1094C244.25 37.4219 244.547 35.6094 245.141 33.6719C245.734 31.7031 246.688 29.8906 248 28.2344C249.344 26.5469 251.078 25.1406 253.203 24.0156C255.359 22.8906 257.969 22.3281 261.031 22.3281H283.016C284.703 22.3281 286.516 22.625 288.453 23.2188C290.422 23.8125 292.234 24.7812 293.891 26.125C295.578 27.4375 296.984 29.1719 298.109 31.3281C299.234 33.4531 299.797 36.0469 299.797 39.1094ZM321.641 33.25H364.438V5.78125H376.625V73H364.438V45.5312H321.641V73H309.453V5.78125H321.641V33.25ZM444.688 66.8594C444.688 67.7344 444.531 68.5469 444.219 69.2969C443.906 70.0469 443.469 70.7031 442.906 71.2656C442.375 71.7969 441.734 72.2188 440.984 72.5312C440.266 72.8438 439.484 73 438.641 73H411.078C409.578 73 407.969 72.8281 406.25 72.4844C404.562 72.1406 402.891 71.5938 401.234 70.8438C399.578 70.0625 397.969 69.0938 396.406 67.9375C394.875 66.75 393.531 65.3281 392.375 63.6719C391.219 61.9844 390.281 60.0469 389.562 57.8594C388.875 55.6719 388.531 53.2031 388.531 50.4531V22.3281H400.719V50.4531C400.719 52.0469 400.984 53.4844 401.516 54.7656C402.078 56.0156 402.828 57.0938 403.766 58C404.703 58.9062 405.797 59.6094 407.047 60.1094C408.328 60.5781 409.703 60.8125 411.172 60.8125H432.5V22.3281H444.688V66.8594ZM512 55.8906C512 57.0469 511.859 58.2656 511.578 59.5469C511.328 60.8281 510.922 62.1094 510.359 63.3906C509.797 64.6406 509.062 65.8438 508.156 67C507.281 68.1562 506.203 69.1875 504.922 70.0938C503.672 70.9688 502.219 71.6719 500.562 72.2031C498.906 72.7344 497.031 73 494.938 73H472.953C471.797 73 470.578 72.875 469.297 72.625C468.016 72.3438 466.734 71.9219 465.453 71.3594C464.203 70.7969 463 70.0781 461.844 69.2031C460.688 68.2969 459.656 67.2188 458.75 65.9688C457.875 64.6875 457.172 63.2188 456.641 61.5625C456.109 59.875 455.844 57.9844 455.844 55.8906V0.90625H468.031V55.8906C468.031 57.3906 468.5 58.5938 469.438 59.5C470.375 60.375 471.547 60.8125 472.953 60.8125H494.938C496.469 60.8125 497.656 60.3594 498.5 59.4531C499.375 58.5469 499.812 57.3594 499.812 55.8906V39.3906C499.812 37.8594 499.359 36.6719 498.453 35.8281C497.547 34.9531 496.375 34.5156 494.938 34.5156H472.953V22.3281H494.938C496.094 22.3281 497.312 22.4688 498.594 22.75C499.875 23 501.141 23.4062 502.391 23.9688C503.672 24.5312 504.891 25.2656 506.047 26.1719C507.203 27.0469 508.219 28.125 509.094 29.4062C509.969 30.6562 510.672 32.1094 511.203 33.7656C511.734 35.4219 512 37.2969 512 39.3906V55.8906Z" fill="#F2404F"/>
</svg>
